<mxfile host="65bd71144e">
    <diagram id="gaUtyirKsdMXXeDHgJs8" name="Page-1">
        <mxGraphModel dx="541" dy="1606" grid="1" gridSize="10" guides="1" tooltips="1" connect="1" arrows="1" fold="1" page="1" pageScale="1" pageWidth="827" pageHeight="1169" math="0" shadow="0">
            <root>
                <mxCell id="0"/>
                <mxCell id="1" parent="0"/>
                <mxCell id="4" value="" style="edgeStyle=none;html=1;" edge="1" parent="1" source="2" target="3">
                    <mxGeometry relative="1" as="geometry"/>
                </mxCell>
                <mxCell id="2" value="start" style="ellipse;whiteSpace=wrap;html=1;" vertex="1" parent="1">
                    <mxGeometry x="140" y="-130" width="120" height="80" as="geometry"/>
                </mxCell>
                <mxCell id="6" value="" style="edgeStyle=none;html=1;" edge="1" parent="1" source="3" target="5">
                    <mxGeometry relative="1" as="geometry"/>
                </mxCell>
                <mxCell id="3" value="Print program to order Pizza from a fastfood.&lt;br&gt;" style="shape=parallelogram;perimeter=parallelogramPerimeter;whiteSpace=wrap;html=1;fixedSize=1;" vertex="1" parent="1">
                    <mxGeometry x="130" width="150" height="60" as="geometry"/>
                </mxCell>
                <mxCell id="8" value="" style="edgeStyle=none;html=1;" edge="1" parent="1" source="5">
                    <mxGeometry relative="1" as="geometry">
                        <mxPoint x="210" y="240" as="targetPoint"/>
                    </mxGeometry>
                </mxCell>
                <mxCell id="5" value="Assign Variables-&lt;br&gt;Menu1 =chicken&lt;br&gt;Menu2=Beef&lt;br&gt;Menu3=Pepperoni" style="whiteSpace=wrap;html=1;" vertex="1" parent="1">
                    <mxGeometry x="150" y="90" width="120" height="90" as="geometry"/>
                </mxCell>
                <mxCell id="11" value="" style="edgeStyle=none;html=1;" edge="1" parent="1" source="9" target="15">
                    <mxGeometry relative="1" as="geometry">
                        <mxPoint x="200" y="430" as="targetPoint"/>
                    </mxGeometry>
                </mxCell>
                <mxCell id="9" value="User Input_ Select the choice of Pizza" style="shape=parallelogram;perimeter=parallelogramPerimeter;whiteSpace=wrap;html=1;fixedSize=1;" vertex="1" parent="1">
                    <mxGeometry x="135" y="240" width="140" height="60" as="geometry"/>
                </mxCell>
                <mxCell id="17" value="yes" style="edgeStyle=none;html=1;" edge="1" parent="1" source="15" target="16">
                    <mxGeometry relative="1" as="geometry"/>
                </mxCell>
                <mxCell id="19" value="No" style="edgeStyle=none;html=1;entryX=0.364;entryY=0.061;entryDx=0;entryDy=0;entryPerimeter=0;" edge="1" parent="1" source="15" target="18">
                    <mxGeometry relative="1" as="geometry">
                        <mxPoint x="360" y="480" as="targetPoint"/>
                        <Array as="points">
                            <mxPoint x="360" y="480"/>
                            <mxPoint x="370" y="570"/>
                            <mxPoint x="370" y="560"/>
                        </Array>
                    </mxGeometry>
                </mxCell>
                <mxCell id="15" value="If order = Chicken, beef or pepperoni" style="rhombus;whiteSpace=wrap;html=1;" vertex="1" parent="1">
                    <mxGeometry x="165" y="340" width="80" height="80" as="geometry"/>
                </mxCell>
                <mxCell id="21" value="" style="edgeStyle=none;html=1;" edge="1" parent="1" source="16" target="20">
                    <mxGeometry relative="1" as="geometry"/>
                </mxCell>
                <mxCell id="16" value="print (''user_input&quot; + pizza order successful." style="shape=parallelogram;perimeter=parallelogramPerimeter;whiteSpace=wrap;html=1;fixedSize=1;" vertex="1" parent="1">
                    <mxGeometry x="135" y="500" width="140" height="50" as="geometry"/>
                </mxCell>
                <mxCell id="22" style="edgeStyle=none;html=1;" edge="1" parent="1" source="18" target="15">
                    <mxGeometry relative="1" as="geometry">
                        <mxPoint x="220" y="500" as="targetPoint"/>
                        <Array as="points">
                            <mxPoint x="290" y="480"/>
                        </Array>
                    </mxGeometry>
                </mxCell>
                <mxCell id="18" value="print (input(select your choice of pizza)" style="shape=parallelogram;perimeter=parallelogramPerimeter;whiteSpace=wrap;html=1;fixedSize=1;" vertex="1" parent="1">
                    <mxGeometry x="330" y="530" width="130" height="60" as="geometry"/>
                </mxCell>
                <mxCell id="20" value="END" style="ellipse;whiteSpace=wrap;html=1;" vertex="1" parent="1">
                    <mxGeometry x="155" y="620" width="120" height="60" as="geometry"/>
                </mxCell>
                <mxCell id="Ausr7jCpus7VeREv5ayC-22" value="&#10;&#10;Create your own Flow Diagram, a subject of your &#10;own choice, Example: Fast food order and convert it &#10;into code. (Lucid Chart)&#10;&#10;" style="text;html=1;align=center;verticalAlign=middle;resizable=0;points=[];autosize=1;strokeColor=none;fillColor=none;" vertex="1" parent="1">
                    <mxGeometry x="45" y="-250" width="290" height="90" as="geometry"/>
                </mxCell>
            </root>
        </mxGraphModel>
    </diagram>
    <diagram id="T8tNpvfwElaEPYumZiqV" name="Page-2">
        <mxGraphModel dx="1368" dy="1606" grid="1" gridSize="10" guides="1" tooltips="1" connect="1" arrows="1" fold="1" page="1" pageScale="1" pageWidth="827" pageHeight="1169" math="0" shadow="0">
            <root>
                <mxCell id="Y_07cKpxA2QTwFYjInh1-0"/>
                <mxCell id="Y_07cKpxA2QTwFYjInh1-1" parent="Y_07cKpxA2QTwFYjInh1-0"/>
                <mxCell id="IJJuBXlZpEPgxjnxWZyT-0" value="As an extension to the motorbike task that costs &lt;br/&gt;£2000 and loses 10% of its value every year. Set up &lt;br/&gt;a function that performs the calculation by passing &lt;br/&gt;in parameters. Then using a loop, print the value of &lt;br/&gt;the bike every following year until it falls below &lt;br/&gt;£1000." style="text;html=1;align=center;verticalAlign=middle;resizable=0;points=[];autosize=1;strokeColor=none;fillColor=none;" vertex="1" parent="Y_07cKpxA2QTwFYjInh1-1">
                    <mxGeometry x="-170" y="-1140" width="290" height="90" as="geometry"/>
                </mxCell>
                <mxCell id="IJJuBXlZpEPgxjnxWZyT-4" value="" style="edgeStyle=none;html=1;" edge="1" parent="Y_07cKpxA2QTwFYjInh1-1" source="IJJuBXlZpEPgxjnxWZyT-2" target="IJJuBXlZpEPgxjnxWZyT-3">
                    <mxGeometry relative="1" as="geometry"/>
                </mxCell>
                <mxCell id="IJJuBXlZpEPgxjnxWZyT-2" value="start" style="ellipse;whiteSpace=wrap;html=1;" vertex="1" parent="Y_07cKpxA2QTwFYjInh1-1">
                    <mxGeometry x="-100" y="-990" width="120" height="60" as="geometry"/>
                </mxCell>
                <mxCell id="IJJuBXlZpEPgxjnxWZyT-6" value="" style="edgeStyle=none;html=1;" edge="1" parent="Y_07cKpxA2QTwFYjInh1-1" source="IJJuBXlZpEPgxjnxWZyT-3" target="IJJuBXlZpEPgxjnxWZyT-5">
                    <mxGeometry relative="1" as="geometry"/>
                </mxCell>
                <mxCell id="IJJuBXlZpEPgxjnxWZyT-3" value="Print(Cost of Motor Bike)" style="shape=parallelogram;perimeter=parallelogramPerimeter;whiteSpace=wrap;html=1;fixedSize=1;" vertex="1" parent="Y_07cKpxA2QTwFYjInh1-1">
                    <mxGeometry x="-100" y="-880" width="120" height="50" as="geometry"/>
                </mxCell>
                <mxCell id="IJJuBXlZpEPgxjnxWZyT-8" value="" style="edgeStyle=none;html=1;" edge="1" parent="Y_07cKpxA2QTwFYjInh1-1" source="IJJuBXlZpEPgxjnxWZyT-5" target="IJJuBXlZpEPgxjnxWZyT-7">
                    <mxGeometry relative="1" as="geometry"/>
                </mxCell>
                <mxCell id="IJJuBXlZpEPgxjnxWZyT-5" value="User Input (what is the year)" style="rounded=1;whiteSpace=wrap;html=1;" vertex="1" parent="Y_07cKpxA2QTwFYjInh1-1">
                    <mxGeometry x="-90" y="-810" width="120" height="40" as="geometry"/>
                </mxCell>
                <mxCell id="IJJuBXlZpEPgxjnxWZyT-10" value="" style="edgeStyle=none;html=1;" edge="1" parent="Y_07cKpxA2QTwFYjInh1-1" source="IJJuBXlZpEPgxjnxWZyT-7" target="IJJuBXlZpEPgxjnxWZyT-11">
                    <mxGeometry relative="1" as="geometry">
                        <mxPoint x="-30" y="-610" as="targetPoint"/>
                    </mxGeometry>
                </mxCell>
                <mxCell id="IJJuBXlZpEPgxjnxWZyT-7" value="Print (&quot;yearly depreciation of motorbikes&quot;)" style="rounded=1;whiteSpace=wrap;html=1;" vertex="1" parent="Y_07cKpxA2QTwFYjInh1-1">
                    <mxGeometry x="-85" y="-740" width="120" height="60" as="geometry"/>
                </mxCell>
                <mxCell id="IJJuBXlZpEPgxjnxWZyT-13" value="yes" style="edgeStyle=none;html=1;" edge="1" parent="Y_07cKpxA2QTwFYjInh1-1" source="IJJuBXlZpEPgxjnxWZyT-11" target="IJJuBXlZpEPgxjnxWZyT-12">
                    <mxGeometry relative="1" as="geometry"/>
                </mxCell>
                <mxCell id="IJJuBXlZpEPgxjnxWZyT-15" value="" style="edgeStyle=none;html=1;" edge="1" parent="Y_07cKpxA2QTwFYjInh1-1" source="IJJuBXlZpEPgxjnxWZyT-11">
                    <mxGeometry relative="1" as="geometry">
                        <mxPoint x="-30" y="-530" as="targetPoint"/>
                    </mxGeometry>
                </mxCell>
                <mxCell id="IJJuBXlZpEPgxjnxWZyT-17" value="no" style="edgeStyle=none;html=1;" edge="1" parent="Y_07cKpxA2QTwFYjInh1-1" source="IJJuBXlZpEPgxjnxWZyT-11" target="IJJuBXlZpEPgxjnxWZyT-16">
                    <mxGeometry relative="1" as="geometry"/>
                </mxCell>
                <mxCell id="IJJuBXlZpEPgxjnxWZyT-11" value="while cost &amp;gt;=1000&amp;nbsp;" style="rhombus;whiteSpace=wrap;html=1;" vertex="1" parent="Y_07cKpxA2QTwFYjInh1-1">
                    <mxGeometry x="-70" y="-650" width="80" height="80" as="geometry"/>
                </mxCell>
                <mxCell id="IJJuBXlZpEPgxjnxWZyT-12" value="Print cost of depreciation.&amp;nbsp;" style="whiteSpace=wrap;html=1;" vertex="1" parent="Y_07cKpxA2QTwFYjInh1-1">
                    <mxGeometry x="70" y="-640" width="90" height="50" as="geometry"/>
                </mxCell>
                <mxCell id="IJJuBXlZpEPgxjnxWZyT-14" value="Print(&quot;The loop is now finished)" style="rounded=1;whiteSpace=wrap;html=1;" vertex="1" parent="Y_07cKpxA2QTwFYjInh1-1">
                    <mxGeometry x="-85" y="-530" width="120" height="40" as="geometry"/>
                </mxCell>
                <mxCell id="IJJuBXlZpEPgxjnxWZyT-19" value="" style="edgeStyle=none;html=1;" edge="1" parent="Y_07cKpxA2QTwFYjInh1-1" source="IJJuBXlZpEPgxjnxWZyT-16">
                    <mxGeometry relative="1" as="geometry">
                        <mxPoint x="-25" y="-660" as="targetPoint"/>
                    </mxGeometry>
                </mxCell>
                <mxCell id="IJJuBXlZpEPgxjnxWZyT-16" value="Year = year + 1&lt;br&gt;cost=Motor_bike divided by 10" style="rounded=1;whiteSpace=wrap;html=1;arcSize=0;" vertex="1" parent="Y_07cKpxA2QTwFYjInh1-1">
                    <mxGeometry x="-200" y="-640" width="90" height="60" as="geometry"/>
                </mxCell>
            </root>
        </mxGraphModel>
    </diagram>
    <diagram id="MsFUb97oiXSzPksU-e7T" name="Page-3">
        <mxGraphModel dx="541" dy="437" grid="1" gridSize="10" guides="1" tooltips="1" connect="1" arrows="1" fold="1" page="1" pageScale="1" pageWidth="827" pageHeight="1169" math="0" shadow="0">
            <root>
                <mxCell id="_eY1MgIO1D7tCGRmkcGl-0"/>
                <mxCell id="_eY1MgIO1D7tCGRmkcGl-1" parent="_eY1MgIO1D7tCGRmkcGl-0"/>
            </root>
        </mxGraphModel>
    </diagram>
</mxfile>